<?xml version="1.0" standalone="no"?>
<!DOCTYPE svg PUBLIC "-//W3C//DTD SVG 20010904//EN"
 "http://www.w3.org/TR/2001/REC-SVG-20010904/DTD/svg10.dtd">
<svg version="1.0" xmlns="http://www.w3.org/2000/svg"
 width="1000.000000pt" height="258.000000pt" viewBox="0 0 1000.000000 258.000000"
 preserveAspectRatio="xMidYMid meet">

<g transform="translate(0.000000,258.000000) scale(0.100000,-0.100000)"
fill="#000000" stroke="none">
<path d="M4770 1280 l0 -1190 235 0 235 0 -2 1188 -3 1187 -232 3 -233 2 0
-1190z"/>
<path d="M640 1854 c-209 -35 -327 -102 -419 -237 -81 -119 -113 -295 -78
-427 36 -136 143 -253 287 -318 78 -34 152 -62 166 -62 8 0 22 -4 32 -9 9 -5
51 -19 92 -31 41 -12 83 -26 92 -31 10 -5 27 -9 37 -9 11 0 23 -5 26 -10 3 -6
13 -10 21 -10 25 0 103 -59 119 -90 20 -39 19 -63 -5 -110 -33 -64 -83 -84
-210 -85 -99 0 -213 18 -234 37 -6 4 -16 8 -24 8 -22 0 -163 68 -230 112 -36
23 -67 37 -71 32 -15 -17 -191 -283 -191 -290 0 -17 103 -84 215 -139 87 -42
240 -95 278 -95 16 0 37 -5 48 -10 26 -15 336 -14 390 0 101 27 127 35 176 57
58 26 134 81 176 127 65 73 116 217 117 333 0 115 16 121 55 21 82 -210 239
-377 447 -476 37 -18 74 -32 82 -32 8 0 17 -4 20 -9 7 -10 25 -14 186 -36 96
-14 132 -15 215 -5 55 6 114 15 131 21 17 5 37 9 46 9 62 0 281 132 362 219
17 17 35 31 42 31 7 0 26 -19 42 -42 73 -106 181 -177 331 -218 54 -14 333
-15 360 0 11 5 28 10 37 10 33 0 179 79 241 129 88 72 93 70 93 -39 l0 -90
225 0 225 0 0 585 c0 602 0 608 -43 750 -45 149 -131 257 -262 331 -59 32
-172 74 -203 74 -13 0 -33 5 -44 11 -28 15 -420 14 -495 -1 -83 -17 -144 -31
-173 -40 -14 -4 -45 -14 -70 -21 -25 -7 -49 -15 -55 -19 -5 -4 -29 -12 -52
-20 -24 -7 -43 -15 -43 -17 0 -14 113 -340 121 -348 6 -6 16 -5 29 3 11 6 28
12 38 12 10 0 22 4 28 8 5 5 36 15 69 22 33 7 74 17 92 22 18 5 103 9 190 10
136 0 166 -3 212 -21 135 -51 196 -131 207 -272 l7 -82 -39 7 c-21 4 -52 11
-69 16 -348 101 -722 42 -905 -143 -55 -55 -114 -168 -126 -242 -10 -64 -11
-180 -1 -225 4 -20 3 -41 -3 -50 -8 -12 -30 5 -117 92 l-108 107 -55 -45 c-30
-25 -93 -64 -140 -87 -85 -41 -86 -41 -200 -42 -117 0 -139 5 -229 48 -92 45
-191 171 -224 286 -14 47 -14 285 0 332 43 148 161 272 303 318 150 50 317 8
460 -114 l65 -55 73 77 c40 43 104 113 143 155 l70 77 -48 46 c-92 89 -238
172 -358 203 -103 27 -167 33 -295 29 -188 -7 -265 -24 -408 -94 -211 -102
-388 -312 -451 -535 -6 -21 -16 -55 -23 -75 -6 -22 -13 -110 -14 -203 -1 -91
-2 -168 -3 -172 -2 -18 -20 -6 -29 20 -16 45 -100 140 -160 180 -92 62 -188
104 -382 169 -252 84 -338 150 -315 240 9 37 64 86 113 101 51 15 121 16 176
1 22 -6 59 -15 81 -21 22 -6 50 -14 63 -19 12 -5 32 -13 45 -18 12 -5 58 -26
102 -47 44 -22 82 -40 86 -42 7 -3 29 33 89 143 74 135 82 150 91 162 7 8 -6
20 -43 41 -147 84 -315 139 -489 161 -101 13 -130 12 -229 -5z m3336 -993 c16
-5 49 -14 74 -22 97 -28 100 -31 100 -112 0 -107 -30 -176 -103 -244 -42 -39
-68 -54 -147 -84 -22 -9 -76 -14 -150 -13 -130 0 -184 18 -242 80 -96 102 -67
287 56 351 83 44 119 51 252 52 72 1 144 -3 160 -8z m-2516 -116 c0 -14 -4
-25 -10 -25 -5 0 -10 11 -10 25 0 14 5 25 10 25 6 0 10 -11 10 -25z"/>
<path d="M7945 1855 c-103 -30 -123 -42 -210 -130 -57 -56 -92 -102 -119 -153
-21 -40 -43 -71 -49 -69 -8 2 -13 54 -15 170 l-2 167 -240 0 -240 0 0 -875 0
-875 240 0 240 0 0 390 c0 376 2 411 33 525 57 215 249 365 466 365 l61 0 0
250 0 250 -62 -1 c-35 -1 -81 -7 -103 -14z"/>
<path d="M8835 1858 c-69 -13 -127 -28 -147 -39 -10 -5 -23 -9 -28 -9 -19 0
-143 -62 -201 -101 -165 -111 -308 -302 -359 -479 -7 -25 -17 -58 -23 -74 -6
-17 -11 -101 -11 -196 0 -95 5 -179 11 -196 6 -16 16 -49 24 -74 18 -64 67
-166 110 -231 83 -123 188 -218 319 -287 121 -64 192 -86 355 -107 250 -34
519 38 715 190 228 178 365 470 347 745 -10 155 -31 237 -94 368 -109 227
-330 403 -588 470 -128 33 -313 42 -430 20z m268 -402 c166 -43 281 -146 348
-311 21 -52 24 -76 24 -185 0 -131 -3 -146 -57 -257 -37 -79 -124 -160 -216
-204 -65 -32 -71 -33 -192 -33 -106 0 -132 4 -173 22 -140 63 -242 174 -287
315 -18 55 -21 83 -17 179 6 168 32 240 128 343 112 120 287 171 442 131z"/>
<path d="M6000 1849 c-109 -6 -182 -17 -260 -38 -19 -6 -51 -14 -70 -19 -37
-10 -62 -19 -95 -32 -11 -4 -35 -13 -52 -20 -22 -8 -33 -19 -33 -32 0 -20 75
-259 91 -290 5 -10 9 -25 9 -33 0 -17 21 -20 48 -6 18 10 63 23 210 61 24 6
114 11 200 12 135 0 165 -3 211 -21 107 -40 157 -89 192 -184 20 -54 26 -152
10 -162 -6 -3 -29 -1 -53 5 -24 6 -61 16 -83 21 -286 72 -603 35 -790 -91 -96
-66 -152 -144 -193 -271 -18 -53 -15 -264 4 -319 64 -185 185 -293 393 -350
54 -14 333 -15 360 0 11 5 28 10 37 10 35 0 180 80 248 135 81 68 86 66 86
-52 l0 -83 230 0 231 0 -4 568 c-3 322 -9 593 -15 627 -14 82 -22 116 -32 140
-4 11 -14 36 -21 55 -21 59 -97 166 -147 208 -80 67 -238 142 -300 142 -13 0
-31 4 -40 9 -24 12 -234 18 -372 10z m306 -988 c16 -5 55 -17 87 -26 86 -25
91 -33 83 -132 -4 -52 -14 -100 -27 -128 -24 -51 -100 -125 -150 -147 -87 -39
-106 -43 -219 -42 -127 1 -164 12 -225 65 -54 48 -68 83 -68 169 -1 64 3 81
26 117 61 96 148 131 333 132 72 1 144 -3 160 -8z"/>
</g>
</svg>
